# xmcd
# Track frame offsets:
# 150
# 11919
# 28955
# 40436
# 55238
# 67515
# 81964
# 92864
# 104729
# 116086
# 131722
# 141039
#
# Disc length: 2098 seconds
# Revision: 0
# Processed by: cddbd v1.4PL0 Copyright (c) Steve Scherf et al.
# Submitted via: VisiTrax 2.9.5.180 - For more info visit www.synapsa.com
#
DISCID=ad08300c
DTITLE=Hatchet - Honky Tonk Nighttime man
DYEAR=2002
DGENRE=
TTITLE0=Walkin' in circles
TTITLE1=Whiskey leads to cheatin'
TTITLE2=Ace in the hole
TTITLE3=Rose colored glasses
TTITLE4=Barcode
TTITLE5=Steel mills of Birmingham
TTITLE6=Happy livin' simple
TTITLE7=Sanford Wynn
TTITLE8=Money in the tank
TTITLE9=Love every lie
TTITLE10=I've found my niche
TTITLE11=Honky tonk nighttime man
EXTD=
EXTT0=
EXTT1=
EXTT2=
EXTT3=
EXTT4=
EXTT5=
EXTT6=
EXTT7=
EXTT8=
EXTT9=
EXTT10=
EXTT11=
PLAYORDER=
